<svg version="1.1" preserveAspectRatio="none" xmlns="http://www.w3.org/2000/svg" width="500" height="500" viewBox="0 0 500 500"><rect width="100%" height="100%" fill="#FFFFFF" fill-opacity="1"/><svg viewBox="193.3934 532.2512 573.3613 154" width="333" height="89.44098598911366" x="83.5px" y="205.2795px" xmlns="http://www.w3.org/2000/svg" xmlns:xlink="http://www.w3.org/1999/xlink" preserveAspectRatio="none"><defs></defs><style>.companyName {fill:#4D4D4D;fill-opacity:1;}.icon1 {fill:#FF834F;fill-opacity:1;}.icon2 {fill:#FF4949;fill-opacity:1;}.icon3 {fill:#FFAE78;fill-opacity:1;}.icon3-str {stroke:#FFAE78;stroke-opacity:1;}.shapeStroke-str {stroke:#313131;stroke-opacity:1;}</style><g opacity="1" transform="rotate(0 193.3934 544.2512)">
<svg width="134.2124" height="130" x="193.3934" y="544.2512" version="1.1" preserveAspectRatio="none" viewBox="20 22.599998474121094 159.91917419433594 154.89999389648438">
  <g transform="matrix(1 0 0 1 0 0)"><g><path d="M68 177.1c-.2.2-.3.4-.3.4l.3-.4z" data-color="1" class="icon1"></path><path d="M104.7 154.6c0-1.1-12.2 3.8-12.2 3.8 0 4.2-1.1 11.8-10.7 14.1 0 0-1.7-1-3.4-1.8 1.4-2.1 10.5-15.1 10.5-16.1 0-1.1-12.2 3.8-12.2 3.8 0 4.2-1.1 11.8-10.7 14.1 0 0-5.3-3.1-6.9-3.1-1.3 0-5.8 6.1-7 7.7.9-1.2 4.2-5.1 7.7-3.4 3.6 1.6 6.6 3.3 8.6 2.7-.2.3-.4.5-.5.7.1-.2.3-.4.6-.7.3-.1.6-.2.9-.4 1-.8 4.6-1.2 7.9-1.5 3.4 1.6 6.2 2.8 7.9 1.5 1.9-1.5 14.5-1.9 14.5-1.9L94 171s10.7-15.3 10.7-16.4z" data-color="1" class="icon1"></path><path d="M52.2 177.1c-.2.2-.3.4-.3.4s.1-.1.3-.4z" data-color="1" class="icon1"></path><path d="M63.9 41.3c1.4 0 2.5-1.1 2.5-2.5s-1.1-2.5-2.5-2.5-2.5 1.1-2.5 2.5 1.1 2.5 2.5 2.5z" data-color="1" class="icon1"></path><path d="M179.2 151.5c-2.1-2.3-8-3.6-9.9-4.3-4.4-1.7-9.8-3.4-13.3-6.6 3.5-1.7 5.7-4.8 7.8-8.1 2.4-3.7 4.8-9.2 4.8-13.7-4.7 2.8-8.6 5.6-14 7.1-2.7.7-5.4 1.2-8.1 1.5-.2 0-.6.1-1 .2 5 .4 10.7.5 14.8-1.6.8-.4-1 3.4-1.2 3.7-4.4 7.4-13.1 12-22.1 14.8 2.5-5.3 4.2-10.8 5.1-16.4-1.5.2-3 .2-3.5-.2l.5.4c-3.4-.2-6.8-.6-10.2-1.2 0 .3-.1.5-.1.8 0 .1-.1.5-.1.7-.5 2.2-1 4.3-1.7 6.4-.9 2.5-1.9 5-3.1 7.4-.2.3-.3.6-.5 1l-.1.3-.1.1c-.8 1.4-1.7 2.8-2.6 4.1-.2 0-.4 0-.7.1-3.6.3-7.1.5-10.7.4 4.7-7.5 7.8-15.8 8.9-24.2-4.9-1.9-9.1-4.2-12.8-6.9-.1 2.4-.3 4.8-.6 7.1-.1.8-.3 1.5-.4 2.3 0 .1-.1.5-.1.7-.5 2.1-1.2 4.2-2 6.3-.9 2.5-2.1 4.9-3.4 7.3-.2.3-.4.6-.5.9l-.1.3-.1.1c-1 1.6-2 3.1-3.2 4.6-6.5-1.2-12.8-3.1-18.8-5.8-14.8-6.7-35.6-31.3-22.6-48 8.4-10.7 23.2-4.9 31 3.1 3.4 3.5 6.4 7 9.8 10.2-13.2-16.9-15-38.1-15.9-44.2-1.7-11.7 1.8-31.9-16.5-31.9-6.6 0-9.5 5.6-11.7 11.3-.6 1.5 4.7-1.1 5.8 2 3.2 9-4.8 25.2-9.7 32.3-10.5 15.4-13.3 31.4-7.5 49.2 4.9 14.8 15.5 28.8 31.3 32.6 10.1 2.4 20.7 2 30.9.2 5.1-.9 10.2-2.2 15.2-3.8 4.6-1.5 9.4-4.2 14.1-4.7 5.9-.6 11 3.5 16.1 5.8 6.2 2.8 12.4 5.4 18.4 8.7 1.6.9 3.3 1.9 5.2 1.8 4.9-.1 6.4-6.4 8.7-9.7.6-.8 1.2-1.7 1.2-2.8.1-.6-.2-1.2-.7-1.7zM63.9 34.4c2.4 0 4.4 2 4.4 4.4 0 2.4-2 4.4-4.4 4.4-2.4 0-4.4-2-4.4-4.4 0-2.4 2-4.4 4.4-4.4z" data-color="2" class="icon2"></path><path d="M55.4 36.5c0-1.3-1-2.3-2.3-2.3-1.3 0-2.3 1-2.3 2.3 0 .7.3 1.3.8 1.7-1.1 1.1-3.3 4.4-3.3 4.4l5.5-.8-1.5-3.3c.3.1.6.2.9.2 1.1.2 2.2-.9 2.2-2.2z" data-color="3" class="icon3"></path><path d="M53.9 36.5c0 .4-.4.8-.8.8s-.8-.4-.8-.8.4-.8.8-.8.8.4.8.8z" data-color="1" class="icon1"></path><path d="M97.8 142c-.5.9.3-.4 0 0z" data-color="3" class="icon3"></path><path d="M104 126.5l-.1.3c.1-.3.1-.4.1-.3z" data-color="3" class="icon3"></path><path d="M123 143.6c-.5.9.2-.5 0 0z" data-color="3" class="icon3"></path><path d="M137.5 42.5s-13.7-3.4-26.2.1h-19c3.3-1.3 10.3-5.7 17.3-19.6 0 0-12.8 7.8-19 19.6H71.8c3.3-1.3 10.3-5.7 17.3-19.6 0 0-12.8 7.8-19 19.6H26.5c2.6-.8 10.5-4.2 18.4-20 0 0-13 7.9-19.2 20H20v1.1h10.5c.5 2.1 3.4 10.4 20.1 18.8 0 0-7.6-12.5-19.2-18.8h18.1c.2 1.2 2.1 10.2 20.2 19.2 0 0-7.9-13-19.9-19.2h39.8c.2 1.2 2.1 10.2 20.2 19.2 0 0-7.9-13-19.9-19.2h20.9c2.4 1.4 10.4 4.2 26.7-1.2z" data-color="3" class="icon3"></path><path d="M105.1 115c.1 3.1-.2 6.2-.6 9.2-.1.8-.3 1.5-.4 2.3 0-.1 0-.1-.1.3l.1-.3c0 .1-.1.5-.1.7-.5 2.1-1.2 4.2-2 6.3-.9 2.5-2.1 4.9-3.4 7.3-.2.3-.4.6-.5.9l-.1.3c.3-.4-.5.9 0 0l-.1.1c-1 1.6-2 3.1-3.2 4.6 4.7.9 9.5 1.4 14.3 1.5 5.2-8.2 8.4-17.3 9.2-26.6-4.6-1.7-9-4-13.1-6.6z" data-color="3" class="icon3"></path><path d="M141.2 127.3c-4.1-.4-8.2-1.1-12.2-2.1v.4c-.1.8-.2 1.6-.3 2.3v.3-.3c0 .1-.1.5-.1.7-.5 2.2-1 4.3-1.7 6.4-.9 2.5-1.9 5-3.1 7.4-.2.3-.3.6-.5 1l-.1.3c.2-.4-.5.9 0 0l-.1.1c-.8 1.4-1.7 2.8-2.6 4.1 5-.5 10.8-1.5 16.5-3.3 2.6-5.5 4.4-11.3 5.2-17.2-.4-.1-.7-.1-1-.1z" data-color="3" class="icon3"></path></g></g>
</svg>
</g><g opacity="1" transform="rotate(0 391.6058 559.2512)">
<svg width="375.1489" height="100" x="391.6058" y="559.2512" version="1.1" preserveAspectRatio="none" viewBox="3.32 -28.48 108.64000000000001 28.96">
  <g transform="matrix(1 0 0 1 0 0)" class="companyName"><path id="id-D6z1nYkh4" d="M9.76-5.20L25-5.20L25 0L3.32 0L3.32-28L24.48-28L24.48-22.80L9.76-22.80L9.76-16.72L22.76-16.72L22.76-11.68L9.76-11.68L9.76-5.20Z M42.28-28Q46-28 48.74-26.76Q51.48-25.52 52.96-23.24Q54.44-20.96 54.44-17.84L54.44-17.84Q54.44-14.76 52.96-12.46Q51.48-10.16 48.74-8.94Q46-7.72 42.28-7.72L42.28-7.72L36.64-7.72L36.64 0L30.16 0L30.16-28L42.28-28ZM41.92-13Q44.84-13 46.36-14.26Q47.88-15.52 47.88-17.84L47.88-17.84Q47.88-20.20 46.36-21.46Q44.84-22.72 41.92-22.72L41.92-22.72L36.64-22.72L36.64-13L41.92-13Z M78.36-6.24L78.36-14.44L84.28-14.44L84.28-3.08Q82-1.36 79-0.44Q76 0.48 72.96 0.48L72.96 0.48Q68.60 0.48 65.12-1.38Q61.64-3.24 59.66-6.54Q57.68-9.84 57.68-14L57.68-14Q57.68-18.16 59.66-21.46Q61.64-24.76 65.16-26.62Q68.68-28.48 73.08-28.48L73.08-28.48Q76.76-28.48 79.76-27.24Q82.76-26 84.80-23.64L84.80-23.64L80.64-19.80Q77.64-22.96 73.40-22.96L73.40-22.96Q70.72-22.96 68.64-21.84Q66.56-20.72 65.40-18.68Q64.24-16.64 64.24-14L64.24-14Q64.24-11.40 65.40-9.36Q66.56-7.32 68.62-6.18Q70.68-5.04 73.32-5.04L73.32-5.04Q76.12-5.04 78.36-6.24L78.36-6.24Z M96.72-5.20L111.96-5.20L111.96 0L90.28 0L90.28-28L111.44-28L111.44-22.80L96.72-22.80L96.72-16.72L109.72-16.72L109.72-11.68L96.72-11.68L96.72-5.20Z"/></g>
</svg>
</g><g opacity="1" transform="rotate(0 357.6058 532.2512)">
<svg width="6" height="154" x="357.6058" y="532.2512" version="1.1" preserveAspectRatio="none" viewBox="0 0 6 154">
  <defs><rect x="0" y="0" width="6" height="154" rx="0px" ry="0px" id="id-tBXipXk0b1716184737465"></rect></defs><use class="companyName shapeStroke-str" style="stroke-width:0;" xlink:href="#id-tBXipXk0b1716184737465"></use>
</svg>
</g></svg></svg>